<svg width="1366" height="98" viewBox="0 0 1366 98" fill="none" xmlns="http://www.w3.org/2000/svg">
<g clip-path="url(#clip0_51_46)">
<path d="M1366 92.1881V-1.02193L1.26352e-05 -1.02213C8.4248e-06 23.0589 4.2143e-06 47.14 0 71.243C0.367079 71.1553 0.753479 70.936 1.08192 71.0018C2.27976 71.2211 3.53556 71.1992 4.67544 71.0018C7.5348 70.5412 10.3555 69.7517 13.466 69.0279C13.7752 69.2253 14.3548 69.6201 14.8571 69.971C16.5959 69.4885 18.3347 68.9621 19.9189 69.7956C21.4065 70.5851 22.8555 70.7825 24.4011 70.6728C24.3239 69.7736 24.2273 68.8525 24.15 68.0191C24.8648 67.4927 25.6569 67.2295 25.9274 66.6593C26.4877 65.475 27.2991 65.4092 28.2651 65.5189C29.7141 65.6943 30.8927 66.3742 31.6655 67.8436C31.8007 68.1068 32.1098 68.2603 32.3996 68.5016C32.7474 68.041 33.0372 67.6682 33.269 67.3611C34.4669 67.6901 35.5874 68.0191 36.7273 68.3261C38.2922 67.1418 38.5627 68.8525 39.2968 69.8394C39.606 69.1157 39.9151 68.4139 40.1469 67.8656C41.1129 67.3173 41.6539 67.9972 42.3687 68.3042C43.0063 68.5674 43.895 68.0849 44.7258 67.9314C44.8417 68.1726 44.9962 68.4577 45.2088 68.8525C45.6724 68.699 46.1748 68.5454 46.6384 68.4139C47.0635 68.8306 47.4499 69.1815 47.7783 69.4885C48.3 68.9621 48.6864 68.5674 49.3239 67.9314C49.5171 69.335 49.6524 70.3 49.8069 71.4843C50.0774 70.607 50.2706 69.971 50.4638 69.335C50.5797 69.3789 50.6956 69.4008 50.8116 69.4446C50.8695 69.9491 50.9468 70.4754 51.0434 71.2431C51.4878 70.2781 51.8162 69.5982 52.2026 68.7648C52.7049 69.2911 53.13 69.664 53.4777 70.0807C53.9028 70.5851 54.2698 71.1334 54.5596 71.5282C56.0924 71.2796 57.4576 71.594 58.6555 72.4712C59.7181 71.8571 60.6841 71.2869 61.3603 70.8702C62.191 71.3308 62.674 71.5501 63.1377 71.8352C64.5287 72.7344 66.2869 72.9318 67.1563 74.8618C67.4461 75.5417 68.3541 75.8707 68.9337 76.3312C69.3587 76.0461 69.6872 75.8487 70.0349 75.6294C70.5179 75.8707 71.0009 76.2874 71.5033 76.3312C72.0442 76.397 72.6045 76.1338 73.1261 76.0023C73.358 76.4409 73.5898 76.8576 73.8023 77.2524C74.5945 77.033 75.2707 76.8576 76.0435 76.6602C76.9708 77.8226 77.8789 78.985 78.8835 80.257C79.1926 79.7087 79.5404 79.0727 79.9075 78.4147C80.062 78.5244 80.1973 78.6341 80.3518 78.7437C80.4484 79.5991 80.5257 80.4544 80.6416 81.5291C81.0667 81.0027 81.2985 80.7176 81.6076 80.3228C82.3225 81.6168 83.9646 80.257 84.5056 82.0554C84.9693 81.3097 85.317 80.7395 85.7228 80.1035C86.1671 80.8272 86.3603 81.1562 86.6501 81.6168C88.0605 80.1693 89.7993 80.3667 91.0551 80.3447C92.678 81.7264 93.3542 83.8319 95.576 83.4371C95.9237 83.3713 96.3681 83.8977 96.7158 84.2047C96.9284 84.4021 97.1409 84.9504 97.2568 84.9066C98.7444 84.4021 98.899 86.2005 99.3433 86.4637C101.198 86.2663 102.666 86.1347 104.135 85.9812C105.313 84.7969 108.772 82.4721 110.568 82.1212C111.785 81.88 113.099 82.2309 114.49 82.3186C115.05 80.9808 115.785 79.7087 117.272 79.3798C117.543 79.9061 117.755 80.3228 117.987 80.8053C119.784 76.6383 124.131 75.432 127.879 76.0023C128.265 75.6075 128.652 75.2127 128.671 75.1689C130.294 75.2346 131.492 75.1689 132.612 75.4101C133.482 75.6075 134.448 75.1908 135.221 76.0681C136.264 77.2304 137.307 76.8795 138.157 75.7171C139.49 76.8357 141.036 76.3312 142.002 75.7172C143.18 74.9495 144.262 74.4012 145.595 74.2697C146.02 74.2258 146.503 73.9626 146.813 73.6336C148.204 72.1642 149.942 71.7256 151.623 71.3089C152.087 72.0107 152.473 72.6028 153.034 73.4362C153.922 71.6598 154.792 70.936 156.202 71.1115C157.149 71.2211 158.153 71.0676 159.1 70.8922C160.298 70.6509 161.573 69.7736 162.636 70.0588C164.645 70.6071 166.268 69.5543 167.871 68.8086C169.378 68.1068 170.75 67.6463 172.315 68.0191C172.354 68.5455 172.392 69.028 172.431 69.8175C173.474 69.0499 174.266 68.0849 175.425 68.4358C175.503 68.7648 175.561 69.0718 175.619 69.3131C176.855 69.1157 178.323 69.3569 179.212 68.6551C180.777 67.405 182.593 67.6243 184.158 66.769C185.298 67.4489 186.38 68.1068 186.94 68.4577C188.273 68.6113 189.104 68.6332 189.896 68.7867C190.881 68.9622 191.963 69.6859 192.794 69.4008C194.301 68.8525 195.769 68.9841 197.257 68.8087C199.788 68.5016 202.164 69.1376 204.541 69.6859C208.501 70.6071 212.346 72.3397 216.519 71.3308C217.021 71.2211 217.659 71.2431 218.123 71.4624C219.63 72.2081 221.252 72.1423 222.817 72.2739C225.02 72.4493 227.242 72.2739 229.444 72.3835C230.758 72.4274 231.994 72.4274 233.231 71.6379C233.83 71.265 234.738 71.5721 235.453 71.3089C236.225 71.0238 236.882 70.4097 237.636 70.0588C237.945 69.9052 238.389 70.0807 238.756 70.1246C242.079 70.4974 245.344 71.901 248.745 70.6729C248.822 70.6509 248.899 70.6729 248.977 70.6729C251.565 71.5063 254.348 70.7606 256.936 71.8791C257.787 72.252 258.791 72.2739 259.699 72.6687C260.337 72.9538 261.245 72.866 261.902 72.5809C264.22 71.5721 266.538 70.936 268.992 71.7475C269.147 71.7914 269.301 71.7914 269.456 71.8352C270.866 72.2739 272.161 71.9668 272.953 71.3966H278.536C278.981 70.8045 279.367 70.2781 279.502 70.0588H285.375C285.549 70.6948 285.743 71.3966 285.955 72.2081C286.651 72.0765 287.23 71.9888 287.462 71.9449C287.964 71.2212 288.196 70.7167 288.563 70.4097C289.355 69.7298 290.147 68.8964 291.249 69.2034C291.674 69.3131 292.041 69.8175 292.485 70.1684C292.872 69.2034 293.606 69.2034 294.437 69.1815C295.731 69.1376 297.18 69.3131 298.262 68.6771C300.136 67.6024 302.165 67.4928 304.058 67.4489C307.497 67.3831 310.936 67.5586 314.375 67.1419C314.607 67.1199 314.838 67.1419 315.051 67.2077C317.543 68.1507 319.997 67.5366 322.528 67.2077C325.097 66.8787 327.763 67.1199 330.333 67.5366C331.55 67.734 332.729 67.9972 333.965 67.9533C335.549 67.8875 337.172 67.5147 338.699 68.2385C340.534 69.0938 342.524 69.2254 344.321 68.9403C346.195 68.6332 347.779 69.0499 349.479 69.5324C350.445 69.7956 351.527 70.2342 352.416 69.9711C353.826 69.5324 355.159 69.7517 356.531 69.8833C357.748 69.993 358.985 69.9491 360.202 69.9711C360.588 69.9711 360.975 70.0149 361.342 70.0807C363.312 70.4974 365.244 71.0677 367.234 71.3089C368.451 71.4624 369.05 72.0107 369.205 73.5021C369.514 72.4932 369.765 71.7256 370.074 70.7387C371.311 71.4405 372.354 71.1992 373.475 70.7387C374.46 70.322 375.6 70.2562 376.662 70.1904C378.363 70.1027 380.082 69.9711 381.744 70.2342C383.424 70.4974 385.144 70.5413 386.786 71.0019C387.23 71.1335 387.597 71.5502 388.119 71.9011C390.051 70.3658 392.118 68.9622 394.437 71.3528C394.727 71.0677 394.997 70.7825 395.287 70.4974C396.601 70.958 398.127 70.2562 399.247 71.4405C399.615 70.9361 399.885 70.5413 400.175 70.1685C401.759 71.1993 403.652 69.664 404.85 71.1115C405.797 70.9799 406.705 70.5632 407.42 70.8264C409.081 71.4186 410.608 70.9361 412.172 70.5413C412.501 70.4536 412.829 70.2343 413.158 70.2781C414.278 70.4316 415.399 70.6948 416.481 70.8922C416.925 71.7037 417.312 72.4055 417.833 73.3266C418.336 72.4932 418.703 71.8353 419.128 71.1335C420.016 71.923 420.596 72.4274 421.156 72.9319C423.359 72.0546 425.561 71.7037 427.764 72.2739C427.938 71.7475 428.073 71.3528 428.208 70.9361C428.594 71.0677 428.865 71.1773 428.884 71.1773C429.812 70.3658 430.623 69.664 431.608 68.7868C431.666 68.5016 431.802 67.8876 431.995 67.0103C432.362 67.5367 432.536 67.7998 432.787 68.1946C433.753 67.6902 434.951 67.4051 435.724 66.6155C436.805 65.5189 437.81 65.4093 439.066 65.826C439.703 66.0453 440.399 66.155 441.075 66.1769C442.988 66.2207 444.901 66.1769 446.813 66.1988C448.011 66.1988 449.248 66.3304 449.962 64.8829C450.02 64.7733 450.233 64.7513 450.445 64.6636C450.832 64.9926 451.257 65.3435 451.759 65.7602C452.899 64.7294 454.097 65.0364 455.295 65.5628C455.662 64.861 455.99 64.203 456.299 63.567C456.763 63.7863 457.111 63.9618 457.536 64.1592C458.85 62.5143 460.646 62.931 462.308 62.7117C462.656 62.0976 462.965 61.5274 463.235 61.0229C463.873 60.8694 464.356 61.7686 464.955 60.9571C465.283 60.5185 465.843 60.4527 466.268 59.8167C467.234 58.3692 468.799 58.3472 470.384 58.2814C472.586 58.1937 474.499 58.764 476.276 60.036C477.493 59.9263 478.672 59.8167 480.005 59.6851C480.14 59.9483 480.353 60.3869 480.643 61.001C480.952 60.1457 481.087 59.7728 481.203 59.4219H483.966C484.255 59.9044 484.487 60.3211 484.738 60.7378C484.932 60.2334 485.105 59.7509 485.318 59.1807C486.245 59.4438 487.192 58.7859 488.061 59.8386C488.332 58.5666 489.105 58.1937 490.148 58.2815C490.38 58.6543 490.573 59.0052 490.824 59.4C491.423 58.8517 492.003 58.3034 492.756 57.6235C493.123 58.1718 493.568 58.5885 493.684 59.0929C493.857 59.8386 493.78 60.6501 493.838 61.4396C493.838 61.5493 493.954 61.6589 494.07 61.8563C494.147 61.4396 494.186 61.0887 494.302 60.7817C494.398 60.4966 494.611 60.2772 494.978 59.6632C495.094 61.0229 495.19 61.9441 495.306 63.2161C495.693 61.9002 495.963 60.9352 496.272 59.9263C496.697 60.0799 497.026 60.2115 497.374 60.343C497.49 59.9263 497.586 59.5096 497.702 59.0929C498.378 59.7947 499.035 60.4966 499.615 61.1107C500.368 60.2992 501.16 59.4658 501.933 58.6324C502.281 58.9613 502.629 59.2684 502.841 59.4877C503.421 58.6104 503.942 57.8428 504.194 57.47H507.285C507.594 57.9963 507.961 58.6324 508.347 59.3342C509.352 57.1849 511.4 57.2068 512.907 56.1321C514.549 56.834 516.114 57.5138 517.621 58.1718C518.143 58.0183 518.626 57.8648 519.302 57.6674C519.572 55.9567 520.867 55.4523 522.123 55.1233C523.591 55.5619 524.963 55.8032 526.218 56.3953C527.03 56.7901 527.648 56.6366 528.382 56.3953C529.232 56.0883 530.218 55.54 530.99 55.7593C532.749 56.2857 534.333 56.0664 535.762 55.1014C536.265 55.4084 536.651 55.6277 536.98 55.847C537.327 55.4303 537.656 54.8162 537.81 54.882C538.815 55.2329 539.8 55.7374 540.689 56.1322C541.443 55.6935 542.215 55.211 542.872 54.8162C544.65 56.6146 545.596 59.0052 547.895 59.8167C547.548 59.3561 547.181 58.8956 546.736 58.3253C548.011 57.0752 549.48 56.1979 550.33 54.6847C552.61 55.3426 554.696 54.7285 557.188 54.4215C557.768 55.1891 558.541 56.1979 559.41 57.3165C560.106 57.0972 560.956 56.834 561.806 56.5708C562.269 55.211 561.806 53.3249 563.622 52.5792C564.24 53.2372 564.858 53.917 565.477 54.5969C565.612 54.3118 565.708 54.0925 565.805 53.8732C566.211 53.939 566.578 53.9828 567.157 54.0706C566.868 53.281 566.655 52.7327 566.443 52.0967C566.829 51.8116 567.273 51.2194 567.563 51.3072C568.181 51.4607 568.993 51.044 569.456 51.8774C569.495 51.9432 569.572 51.9432 569.669 51.9871C570.094 49.5088 571.91 50.9782 572.953 50.3422C573.263 50.8027 573.475 51.1098 573.726 51.4826C574.924 50.715 575.987 50.0571 577.011 49.3991C577.977 49.8158 578.865 50.1886 579.773 50.5834C580.681 49.0921 582.575 50.1229 583.464 48.4999C583.56 49.0043 583.637 49.3772 583.715 49.75C584.964 49.1798 586.22 48.9385 587.482 49.0263C589.047 47.4033 590.882 47.2498 592.737 47.7104C594.032 48.0393 595.249 48.2367 596.562 47.7542C597.084 47.5568 597.799 47.6446 598.321 47.8639C599.325 48.2806 600.253 48.8727 600.987 49.2675C602.436 48.2587 603.769 47.3595 605.083 46.4164C606.551 45.3856 608.116 46.1532 609.623 46.1093C610.917 46.0874 612.231 46.855 613.525 45.9339C613.68 45.8242 614.047 45.8462 614.144 45.9778C614.897 46.8989 615.728 46.2409 616.539 46.1532C617.447 46.0655 618.355 46.0216 619.244 45.912C619.611 45.8681 619.998 45.7365 620.326 45.583C622.065 44.7496 623.842 44.0039 625.523 43.0389C626.566 42.4248 627.397 42.4029 628.151 43.3679C628.634 42.8854 629.02 42.4906 630.102 41.416C630.121 42.1836 630.141 42.7538 630.179 43.3898C630.527 42.2274 630.739 41.4817 630.855 41.065C633.367 41.3282 635.569 41.5475 637.984 41.7888C638.178 41.5695 638.622 41.1089 639.028 40.6703C639.472 40.8677 639.839 40.9992 640.477 41.2624C640.67 40.8019 640.902 40.2536 641.192 39.5518C641.752 40.3413 642.042 40.7361 642.351 41.1747C643.491 41.1089 644.688 40.8238 645.326 39.7491C646.543 37.7095 648.398 37.3805 650.175 36.8541C650.6 37.2489 650.929 37.534 651.277 37.8849C651.818 37.0077 652.301 36.2401 652.822 35.3847C653.943 35.7795 654.986 33.9592 656.087 35.3847C656.377 34.968 656.609 34.661 656.879 34.2881C657.478 34.7926 657.942 35.1873 658.406 35.5821C660.434 34.4417 661.207 34.4855 663.661 35.8892C664.897 35.2751 666.153 34.5952 667.428 34.003C668.066 33.7179 668.742 33.4547 669.418 33.4109C670.867 33.3231 672.316 33.3889 673.321 33.3889C674.345 32.5775 675.002 31.7441 675.794 31.5028C677.165 31.0861 678.614 30.9326 680.044 30.8887C680.74 30.8668 681.416 30.3843 682.227 31.0422C682.807 31.5247 683.85 31.4151 684.662 31.3493C685.299 31.3054 685.898 30.8229 686.536 30.6475C687.656 30.3404 688.777 30.0553 689.897 29.836C690.554 29.7044 691.211 29.6605 691.907 29.5728C691.926 29.4851 691.945 29.2877 692.042 29.1561C693.278 27.5112 693.491 27.5112 694.959 28.8491C695.403 29.2438 696.002 29.4412 696.621 29.7921C696.988 28.9368 697.278 28.235 697.587 27.5331C698.089 27.5989 698.533 27.6647 698.939 27.7305C699.113 28.1692 699.248 28.5201 699.403 28.9368C699.577 28.4762 699.712 28.0814 699.866 27.6867C701.721 27.0507 703.576 26.4366 705.469 25.8006C706.107 25.9979 706.899 26.2392 707.807 26.5024C707.807 26.5462 707.846 26.8533 707.904 27.2261C709.082 27.0945 710.376 27.3358 711.284 26.7655C712.289 26.1295 713.159 26.3708 714.047 26.5462C715.013 26.7436 715.96 26.7875 716.907 26.8971C718.375 27.0726 719.824 27.6209 721.64 28.1034C721.601 28.1253 721.93 27.9279 722.239 27.6867C722.548 27.4454 722.838 27.1603 723.128 26.8971C723.63 27.1165 724.074 27.27 724.48 27.4893C726.412 28.5201 727.243 28.542 729.426 27.9718C730.527 27.6867 731.706 27.5332 732.73 28.4104C732.884 27.6867 732.884 26.8313 733.232 26.283C733.773 25.4058 734.546 25.7786 735.067 26.3708C735.512 25.9541 735.84 25.6251 736.285 25.2084C737.193 26.5462 738.004 27.7744 738.97 29.2219C738.835 27.8841 738.7 26.8752 738.642 25.8444C738.584 25.0987 738.835 24.5066 739.511 24.1776C740.168 23.8486 740.709 23.9583 741.211 24.4846C741.636 24.9452 742.061 25.4277 742.37 25.7567C743.356 24.8794 744.225 24.0899 745.114 23.3003C745.423 24.1337 746.06 24.1337 746.601 24.2215V26.9191C747.181 25.6032 747.548 24.7698 747.741 24.3092C748.804 24.1337 749.905 24.3092 750.292 23.8048C751.605 22.116 752.745 22.752 754.156 23.5197C756.242 24.6382 758.309 26.2173 760.744 24.7698C761.362 25.4058 761.69 26.4146 762.656 25.8883C763.506 26.941 763.661 25.3181 764.221 25.3839C765.883 25.6251 767.834 24.7698 768.839 27.0726C770.462 25.9979 771.408 27.0287 772.065 27.8621C773.07 28.0376 774.113 27.8841 774.461 28.3666C775.214 29.4412 776.258 29.3974 777.146 29.9018C778.325 30.5598 779.078 30.4501 780.025 29.4851C781.01 28.4762 782.17 27.599 783.619 28.1692C784.353 28.4543 785.029 28.8929 785.589 29.2C786.227 28.3008 786.826 27.4235 787.289 26.7656C791.211 25.4277 794.979 24.6382 798.707 24.6601C798.92 24.4847 798.997 24.4408 799.055 24.375C800.639 22.445 801.547 22.3353 803.847 23.1249C804.832 23.4758 805.991 23.1907 807.401 23.1907C807.556 23.3003 808.039 23.6732 808.58 24.0899C808.696 23.5855 808.754 23.2565 808.831 22.9056H811.149C811.285 23.6293 811.42 24.2653 811.517 24.7917C813.642 24.8356 814.646 26.5462 815.67 27.9718C817.39 27.5551 819.013 26.3927 820.288 28.5201C821.119 27.7525 821.872 27.0726 822.703 26.305C823.707 27.1165 824.809 27.7086 826.103 27.0507C826.296 26.941 826.702 26.8972 826.76 27.0068C827.571 28.4762 828.885 28.0376 830.064 28.1692C830.257 28.1911 830.412 28.6517 830.643 29.0026C830.759 28.3666 830.856 27.8183 830.972 27.2261C831.551 27.27 832.382 27.5332 832.498 27.3139C833.387 25.6251 834.391 27.2042 835.01 27.1384C836.555 26.8314 837.154 24.8356 839.067 25.4935C839.743 25.5154 839.125 27.0287 840.129 27.3797C840.902 27.6428 841.521 28.4982 841.946 28.871C842.776 28.564 843.395 28.1473 843.974 28.1911C844.67 28.2569 845.346 28.7614 846.022 29.0684C846.853 29.4412 847.664 29.8141 848.514 30.0992C848.669 30.165 848.939 29.8141 849.268 29.5728C848.534 29.0245 847.993 28.6078 847.452 28.1911C848.476 27.7086 849.364 27.3139 850.195 26.941C850.678 27.7525 851.103 28.4982 851.741 29.5948C852.127 28.3885 852.378 27.6428 852.649 26.8314C853.576 26.612 854.484 26.3927 855.527 26.1296C855.721 27.0068 855.895 27.7086 856.146 28.7833C856.436 27.6867 856.629 26.963 856.783 26.3708C858.232 25.1646 859.044 27.4455 860.319 26.9191C860.473 26.5024 860.628 26.0418 860.802 25.5813C862.058 26.6778 863.603 25.8006 864.762 26.7656C865.361 26.2831 865.864 25.9102 866.405 25.4716C867.023 26.0638 867.602 26.634 868.105 27.1384C868.955 27.0726 869.67 27.0288 870.404 26.9849V25.8225C871.447 26.8094 872.471 27.7744 873.302 28.542C875.813 27.7086 878.035 26.9849 880.276 26.2611C880.392 26.8972 880.508 27.4016 880.547 27.6648C881.049 27.5332 881.532 27.4235 881.996 27.2919C881.571 26.1076 882.788 25.9322 883.058 25.0549C883.851 26.2173 884.604 27.3358 885.435 28.564C885.512 27.8841 885.589 27.3139 885.628 26.9191H887.347C888.584 27.3358 888.796 29.5509 890.767 29.6825C890.207 28.7175 889.801 28.0376 889.569 27.6428C890.671 26.2392 891.617 25.033 892.564 23.8486C893.427 24.4481 894.676 24.4481 896.312 23.8487C896.447 24.1557 896.679 24.6163 896.834 24.9891C898.65 24.4408 900.099 24.6163 900.929 26.2392C901.992 26.1515 902.958 25.8225 903.769 26.0638C904.542 26.305 905.18 27.1604 905.875 27.7525C906.397 26.963 907.15 27.0288 908.02 27.2481C908.889 27.4674 909.797 28.0376 910.686 27.6867C911.865 27.2261 912.444 28.4324 913.372 28.6517C914.395 28.893 915.4 29.3535 916.405 29.7044C916.54 29.7483 916.695 29.7044 916.907 29.7044C917.274 29.3316 917.661 28.9368 918.008 28.564C918.433 28.7394 918.781 28.871 919.129 29.0026C919.361 28.5201 919.554 28.1034 919.786 27.599C920.732 28.3666 921.544 29.0246 922.336 29.6606C923.012 28.6956 924.461 29.6386 924.944 28.235C925.852 29.0903 926.374 27.4235 927.243 27.8183C929.04 28.6078 931.107 28.7614 932.363 30.7791H938.14C938.43 31.2177 938.777 31.7441 939.125 32.2705C940.149 31.6783 941.328 32.8407 942.12 31.8099C941.984 31.2397 941.868 30.801 941.695 30.165C942.95 30.9765 943.974 31.6344 944.979 32.3143C945.307 31.7441 945.597 31.2616 945.887 30.801C947.877 32.1827 950.137 32.3582 952.05 31.3932C952.437 31.1958 952.9 31.1958 953.325 31.2177C953.731 31.2616 953.634 32.5994 954.446 31.8099C954.813 32.3363 955.199 32.8626 955.624 33.4328C956.371 32.0438 957.305 31.5613 958.426 31.9853C958.773 32.1169 959.141 32.2705 959.508 32.3143C960.628 32.4678 961.517 32.9942 962.232 34.0031C962.56 34.4636 963.024 34.7707 963.391 35.1216C965.246 34.0469 965.4 34.0469 966.753 35.1216C966.811 35.1655 966.965 35.0558 967.081 35.0119C966.965 34.354 966.869 33.696 966.733 32.9284C967.641 33.367 968.704 32.731 969.206 33.8495C970.095 33.6083 971.061 33.6083 971.66 33.0819C972.22 32.5994 972.471 32.3582 973.186 32.6433C973.901 32.9284 974.732 32.6872 975.253 31.9196C975.524 31.5029 975.698 30.9984 975.91 30.5379C976.046 30.7352 976.181 30.9326 976.316 31.13C977.205 31.0423 978.151 30.6914 979.002 30.9107C980.141 31.1958 981.648 30.7133 982.286 32.4679C982.363 32.6872 982.711 32.7749 983.078 33.0161C982.962 31.8318 982.189 30.6036 983.329 30.2308C984.585 29.8141 984.778 28.6298 985.454 27.3797V28.9149C986.498 28.4763 987.541 28.0157 988.43 27.6429C988.468 27.1823 988.488 26.8972 988.488 26.6779C989.376 26.8533 990.168 27.292 990.845 27.1165C992.294 26.7437 993.144 27.5113 993.839 28.5859C994.882 28.8491 995.134 27.1823 996.274 27.6429C997.046 27.9499 997.974 27.7087 998.959 27.7087C999.23 28.235 999.539 28.871 999.886 29.529C1000.27 28.9588 1000.58 28.4982 1000.99 27.8841C1002.77 29.4193 1004.87 28.0596 1006.69 28.9588C1007.59 28.1254 1008.34 28.0376 1008.95 28.6956C1009.18 28.3666 1009.39 28.0157 1009.7 27.5551C1010.74 27.9718 1011.81 28.4105 1012.93 28.871C1012.99 28.7833 1013.16 28.5421 1013.33 28.3008C1013.31 28.4982 1013.28 28.6956 1013.26 28.871C1015.79 28.1473 1017.95 29.0465 1020.06 30.3185C1020.44 30.0992 1020.85 29.8799 1021.54 29.4851C1021.85 29.9896 1022.18 30.5598 1022.45 30.9984C1024.07 30.5379 1025.52 30.1431 1027.26 29.6387C1027.75 30.4063 1028.27 31.2616 1028.89 32.2485C1029.18 31.5467 1029.45 30.8668 1029.74 30.1431C1030.03 30.3185 1030.41 30.6695 1030.53 30.5817C1031.92 29.5071 1033.1 30.165 1034.02 31.0642C1035.03 30.2966 1035.84 29.6825 1036.67 29.0465C1037.66 29.9457 1038.51 30.7133 1039.45 31.5906C1041.02 29.4851 1043.43 29.9457 1045.67 29.5071C1046.14 30.3843 1046.58 31.1958 1047.03 32.0292C1048.05 30.7353 1048.07 30.6695 1049.44 31.152C1050.85 31.6345 1052.24 31.7222 1053.6 31.2397C1055.53 33.4329 1058.54 33.8715 1059.55 36.3279C1061.34 37.0955 1062.71 37.6657 1064.42 38.3894C1064.61 37.8631 1064.82 37.3148 1065.07 36.6349C1065.57 37.4464 1065.84 37.885 1066.02 38.1701H1067.72C1068.47 37.556 1069.13 37.0077 1069.79 36.4594C1070 36.7884 1070.13 37.0077 1070.29 37.249C1070.52 36.9419 1070.73 36.6568 1070.87 36.4594C1071.68 36.591 1072.51 37.0077 1073.11 36.7446C1074.44 36.1743 1075.6 37.5341 1076.86 36.92C1076.99 36.8542 1077.28 37.1174 1077.46 37.2709C1078.98 38.6307 1080.68 39.3764 1082.61 39.0474C1083 39.9685 1083.33 40.7361 1083.66 41.5257C1085.26 40.7581 1085.09 42.5565 1085.72 43.2364C1087.68 41.745 1089.72 42.4468 1091.77 42.9293C1092.74 41.8547 1093.09 41.5038 1093.63 41.8108C1095.04 42.6442 1096.54 42.1836 1097.97 42.4907C1098.38 42.5784 1098.82 42.381 1099.27 42.3591C1099.38 42.3591 1099.52 42.4468 1099.62 42.4907C1099.73 42.8635 1099.83 43.1925 1100 43.8066C1100.21 43.0828 1100.35 42.6881 1100.47 42.2494C1102.61 42.6003 1103.58 44.2452 1104.04 46.1752C1106.09 46.5261 1107.79 48.4561 1109.7 46.8551C1111.63 48.4342 1112.91 48.6755 1115.17 48.3684C1116.62 48.171 1118.22 47.864 1119.52 48.4123C1120.62 48.8728 1121.41 48.4561 1122.12 48.3465C1123.88 48.8948 1124.42 50.2765 1124.58 52.0529C1125.78 51.5046 1126.37 52.4696 1126.82 53.1495C1128.07 54.9699 1129.56 55.0576 1131.46 54.1584C1132.04 55.0357 1132.6 55.8691 1133.16 56.7244C1134.35 54.7067 1136.01 54.4874 1137.91 55.2769C1138.18 54.9041 1138.45 54.5093 1138.7 54.1365C1140.96 55.1673 1142.8 57.5797 1145.29 56.2419C1146.29 56.5928 1147.39 56.5928 1147.82 57.2069C1148.52 58.1719 1149.29 57.9745 1150.06 57.9745C1151.07 57.9745 1152.05 57.8429 1153.04 57.6894C1154.54 57.4701 1156.05 57.2288 1157.56 56.9437C1157.81 56.8999 1158.08 56.5709 1158.21 56.3077C1158.68 55.4524 1159.43 55.2111 1160.2 55.2769C1161.11 55.3646 1161.44 56.2639 1161.61 57.2727C1162 56.5709 1162.21 55.9568 1162.6 55.562C1163.08 55.0576 1163.66 54.4435 1164.26 54.3558C1164.92 54.2681 1165.77 54.5312 1166.31 54.9699C1167.22 55.7156 1167.95 56.7244 1168.78 57.6236C1168.84 57.6894 1169.03 57.6236 1169.21 57.6236V56.4174C1170.52 56.1103 1170.69 57.6236 1171.7 58.0842C1172.9 57.7552 1174.11 58.0403 1174.81 59.2466C1176.66 58.8079 1178.34 58.4132 1180.64 57.8649C1181.28 58.1281 1182.48 58.6983 1183.74 59.0711C1185.45 59.5755 1186.9 61.352 1188.95 60.4748C1189.24 60.3432 1189.84 60.5625 1190.01 60.8476C1190.83 62.0538 1191.62 61.5933 1192.49 61.023C1193.12 60.6063 1193.8 60.2554 1194.61 59.7949C1195.13 61.4398 1196.51 60.1019 1197.43 60.8695C1198.32 61.5933 1199.46 61.9003 1200.23 62.2512C1201.08 63.1943 1201.74 64.0277 1202.48 64.7076C1204.27 66.3525 1206.71 67.0324 1207.9 69.5545C1208.79 68.1947 1209.57 67.0324 1210.34 65.848C1210.61 66.2647 1210.82 66.5937 1211.03 66.9227C1211.85 66.2647 1212.52 65.7165 1213.24 65.1243C1214.47 65.6287 1215.69 66.1112 1216.93 66.6157C1217.06 66.2209 1217.2 65.8261 1217.33 65.4094C1218.41 65.4094 1219.48 65.4094 1220.54 65.4094C1221.33 65.4094 1222.22 65.1901 1222.92 65.4752C1224.69 66.2209 1226.22 65.8919 1227.61 64.3128C1230.51 66.3086 1232.9 64.1812 1235.01 63.3478C1236.54 63.5452 1237.79 63.3917 1238.74 63.9181C1239.65 64.4225 1240.25 65.6287 1240.98 66.5279C1241.06 66.4841 1241.14 66.4402 1241.21 66.3963C1240.98 65.6287 1240.75 64.8611 1240.54 64.1154C1241.5 63.611 1242.43 63.1504 1243.3 62.7118C1243.9 63.0846 1244.46 63.4356 1245.29 63.94C1244.94 63.1724 1244.77 62.7995 1244.55 62.317C1245.29 61.6371 1246.08 61.0889 1246.66 60.2993C1247.32 59.4001 1248.55 61.374 1248.94 59.444C1249.81 60.0581 1250.74 60.5186 1251.41 61.2424C1252.11 61.9881 1252.92 62.2074 1253.73 62.1635C1254.83 62.0758 1256.01 61.2643 1256.71 62.975C1256.76 62.9311 1256.86 62.9092 1256.9 62.8434C1257.56 61.9223 1258.19 62.4925 1258.6 63.0408C1258.97 63.5452 1259.28 63.5452 1259.76 63.5452C1261.07 63.5233 1262.29 63.8961 1263.28 64.905C1263.26 65.3655 1263.24 65.7823 1263.22 66.3086C1263.66 65.8919 1263.99 65.5849 1264.34 65.2559C1264.86 65.3875 1265.34 65.4313 1265.75 65.6507C1266.08 65.8481 1266.31 66.2648 1266.58 66.6157C1266.73 66.3086 1266.85 66.0893 1266.95 65.87C1268.32 66.5279 1269.61 67.4052 1271.02 67.7123C1272.09 67.9535 1272.84 68.4141 1273.55 69.2036C1273.65 69.3133 1273.84 69.2913 1273.98 69.3352C1274.4 69.0282 1274.83 68.7211 1275.27 68.3702C1275.45 68.9404 1275.58 69.3352 1275.78 69.9712C1275.95 69.401 1276.07 69.0282 1276.2 68.6334C1277.13 69.2255 1278.4 67.9754 1279.06 69.5545C1279.56 69.1597 1279.95 68.8746 1280.34 68.6115C1280.37 68.5895 1280.47 68.6115 1280.53 68.6334C1280.64 68.8527 1280.76 69.072 1280.88 69.2694C1281.44 69.5545 1281.38 68.0193 1282.11 68.743C1282.44 69.072 1283.18 68.436 1283.33 69.4668C1283.39 69.7958 1284.04 70.1028 1284.47 70.2563C1285.84 70.7169 1287.23 71.1336 1288.62 71.4626C1289.01 71.5503 1289.57 71.3749 1289.86 71.0897C1290.11 70.8266 1290.17 70.5415 1290.5 70.9143C1290.88 71.3529 1291.25 71.8135 1291.64 72.2741C1291.83 72.0986 1292.1 71.8354 1292.45 71.5065C1292.91 72.3837 1293.26 73.1733 1293.7 73.8751C1294.23 74.7085 1294.84 75.4761 1295.5 76.3753C1296.08 76.1121 1296.72 75.827 1297.36 75.5638C1297.61 75.9805 1297.82 76.3095 1298.01 76.6166C1298.4 76.3095 1298.77 76.0244 1299.4 75.5419C1299.73 76.1779 1300.02 76.792 1300.29 77.3184C1302.17 76.1999 1303.54 77.8009 1305.1 77.6254C1305.84 77.5377 1306.65 78.5685 1307.67 79.2484C1308.16 79.1168 1308.93 78.8975 1309.7 78.6781C1309.82 79.0071 1309.93 79.3361 1310.13 79.9283C1310.3 79.1168 1310.4 78.6343 1310.57 77.8447C1310.74 78.6123 1310.84 79.0071 1310.9 79.2264C1311.81 79.358 1312.56 79.4238 1313.3 79.6212C1314.09 79.8405 1314.88 80.1695 1315.65 80.4765C1316.44 80.7836 1317.2 81.1564 1317.99 81.4635C1318.7 81.7486 1318.47 83.2619 1319.59 82.9987C1319.94 83.854 1320.25 84.7094 1320.62 85.5428C1320.79 85.9376 1321.08 86.2446 1321.26 86.6174C1322.01 88.1088 1322.67 89.6659 1323.48 91.1354C1324.44 92.868 1325.45 94.6006 1326.59 96.2016C1327.07 96.9034 1327.9 97.5833 1328.64 97.693C1330.37 97.9342 1332.21 98.1535 1333.89 97.8026C1335.51 97.4517 1337 97.0569 1338.53 98C1338.85 96.8011 1339.49 96.0627 1340.46 95.7849C1341.06 96.2016 1341.7 96.9473 1342.02 96.7938C1342.74 96.4867 1343.32 95.7191 1343.99 95.1269C1345.42 95.2366 1346.93 95.3463 1348.46 95.434C1348.81 95.434 1349.33 95.4778 1349.48 95.2366C1350.54 93.7891 1351.59 94.2058 1352.71 95.0831C1353.33 95.5656 1353.98 96.0481 1354.66 96.4209C1355.16 96.6841 1355.74 96.7718 1356.19 96.9034C1356.07 95.1489 1355.97 93.6575 1355.88 92.1662C1356.94 91.903 1357.44 91.267 1357.94 89.6221C1358.06 89.951 1358.18 90.28 1358.37 90.7845C1358.56 90.1704 1358.7 89.7975 1358.93 89.1176C1359.35 90.2362 1359.66 91.0257 1360.15 92.2758C1360.4 91.1573 1360.51 90.5432 1360.69 89.7975C1362.29 91.4205 1363.82 92.8022 1366 92.1881Z" fill="#F96353"/>
</g>
<defs>
<clipPath id="clip0_51_46">
<rect width="1366" height="98" fill="white" transform="matrix(1 0 0 -1 0 98)"/>
</clipPath>
</defs>
</svg>
