<svg width="1366" height="167" viewBox="0 0 1366 167" fill="none" xmlns="http://www.w3.org/2000/svg">
<g clip-path="url(#clip0_51_43)">
<path d="M1366 48.9197V168.212H0C0 151.539 0 134.886 0 118.213C0.580314 118.117 1.19931 118.117 1.7216 117.885C3.05632 117.288 4.3717 117.288 5.76445 117.654C6.38345 117.808 7.07983 117.827 7.71817 117.731C9.14961 117.558 10.5617 117.268 11.9738 117.037C13.7534 117.519 15.5331 118.039 17.4094 117.808C17.6609 117.77 17.951 117.808 18.1832 117.905C18.7828 118.136 19.3438 117.962 19.9241 117.905C21.1428 117.808 22.1873 117.288 23.1739 116.844C23.6574 116.844 24.0637 116.864 24.4505 116.844C25.5725 116.748 26.5203 117.114 27.2554 117.962C27.5069 118.251 27.8164 118.521 28.1065 118.791C28.919 119.562 29.8668 119.909 30.9887 119.678C31.4337 119.581 31.8786 119.524 32.2848 119.447C32.5943 119.581 32.8264 119.697 33.0585 119.813C34.8188 120.603 36.5984 121.239 38.5715 120.738C38.939 120.642 39.3453 120.796 39.7321 120.815C39.9256 120.815 40.119 120.815 40.3124 120.815C40.738 120.468 41.1249 120.16 41.5698 119.793C43.5042 120.16 45.3418 119.504 47.3149 119.312C48.4562 118.386 49.7909 118.001 51.2223 118.521C51.7059 118.251 52.1122 118.039 52.4603 117.866C53.4856 118.136 54.4528 118.367 55.3039 118.598C56.9094 117.905 57.6251 117.808 59.6369 117.943C60.5847 117.423 61.4939 116.806 61.8808 115.746C62.403 115.707 62.8093 115.881 63.2735 115.63C64.4922 114.975 65.8462 114.724 67.2197 114.589C67.6646 114.551 68.1095 114.416 68.5157 114.339C68.9606 113.683 69.3475 113.086 69.7343 112.527C70.1212 112.296 70.4694 112.103 70.7982 111.91C71.1464 111.737 71.4946 111.582 71.8235 111.37C73.0808 110.58 73.9706 109.25 75.5955 108.884C76.0598 107.535 77.704 107.419 78.3617 106.378C78.5745 106.012 78.3423 105.607 78.7679 105.414C79.1741 105.569 79.5803 105.723 79.9479 105.858C81.36 104.99 82.9268 105.01 84.3969 104.855C85.4415 104.74 86.4861 104.624 87.4532 104.239C87.666 103.988 87.8788 103.757 88.0529 103.545C88.9814 103.236 89.9293 103.988 90.8964 103.236C91.0319 102.87 91.2059 102.388 91.3994 101.849C92.2312 101.714 93.063 101.559 93.8947 101.424C94.0495 100.923 94.1849 100.48 94.3396 99.9982C94.8426 99.9018 95.3455 99.8054 95.8098 99.7283C96.3707 99.9403 96.893 100.345 97.3186 100.268C98.1117 100.133 98.692 100.557 99.2336 100.731C99.9687 100.634 100.259 100.21 100.549 99.7669C100.646 99.6127 100.839 99.5356 101.013 99.4006C101.4 99.5356 101.768 99.6512 102.096 99.7669C102.425 99.6705 102.715 99.5356 103.044 99.497C103.393 99.4585 103.779 99.844 104.07 99.3235C103.915 99.0537 103.741 98.7838 103.586 98.4947C103.586 98.4562 103.625 98.3983 103.644 98.3405C104.805 98.7903 105.933 98.7324 107.029 98.167C107.803 98.0899 108.499 98.0128 109.196 97.9357C109.254 97.5117 109.312 97.2033 109.37 96.8563C110.55 96.8949 111.73 97.0684 112.774 96.7985C113.838 96.2588 114.593 95.5649 115.096 94.6397C116.353 94.5626 117.533 94.4855 118.693 94.4277C119.68 93.5603 121.034 94.4084 121.943 93.6374C122.349 93.7916 122.64 93.9073 122.852 93.9844C123.259 93.6567 123.587 93.3676 123.916 93.0977C124.342 93.2712 124.709 93.4061 124.98 93.5025C126.083 92.905 127.127 92.346 128.191 91.7678C128.501 91.8641 128.868 91.9798 129.216 92.0954C129.758 91.922 130.261 91.7485 130.764 91.575C131.364 90.8811 131.963 90.1872 132.582 89.4741C133.337 89.7825 133.956 90.38 134.807 90.1872C135.832 89.9559 136.877 90.1872 137.921 89.9367C138.598 89.7632 139.411 89.609 140.01 89.8403C140.958 90.2065 141.925 90.2451 142.738 90.4764C143.705 90.38 144.343 89.6283 145.175 89.8403C145.523 89.5512 145.813 89.3006 146.104 89.0693C146.684 89.1657 147.206 89.2428 147.67 89.3006C148.019 88.9922 148.328 88.7609 148.618 88.491C148.947 88.6067 149.237 88.7223 149.605 88.8573C150.224 88.6838 150.978 88.7223 151.52 88.2405C151.945 87.5851 151.81 86.9105 151.868 86.2744H151.849C152.41 86.8334 152.971 87.3731 153.648 88.0092C153.938 88.0092 154.383 87.9706 154.866 87.9513C155.543 87.4502 156.22 86.9491 156.936 86.3901C157.4 86.4672 157.903 86.5443 158.503 86.6406C159.257 86.3323 160.05 86.0239 160.998 85.6384C161.463 85.7733 162.101 86.1395 162.701 86.0624C163.455 85.966 164.132 86.1202 164.886 86.1973C165.409 86.0046 165.95 85.8118 166.569 85.5805C166.666 85.195 166.743 84.8288 166.84 84.4626C166.918 84.1156 166.415 83.7494 166.956 83.3446C167.498 83.7494 168.059 84.1542 168.716 84.6553C169.103 84.1735 169.452 83.7301 169.78 83.3254C170.09 83.2675 170.361 83.229 170.477 83.2097C170.922 83.0748 170.864 82.5351 171.347 82.5929C171.637 82.9784 171.928 83.3639 172.237 83.7687C172.985 83.1133 173.669 82.8306 174.288 82.9206C174.5 83.229 174.694 83.5374 174.926 83.9036C175.216 83.8265 175.448 83.7494 175.796 83.6723C176.048 82.7278 176.299 81.8027 176.57 80.8582C176.802 81.0509 177.034 81.263 177.286 81.4557C177.692 81.4172 178.098 81.3786 178.524 81.34C178.911 81.6484 179.317 81.9569 179.568 82.1689C181.116 82.6122 182.141 81.7063 183.398 81.3015C184.23 81.3786 185.101 81.3979 185.99 80.9738C186.339 80.8004 186.822 80.8582 187.267 80.6654C187.596 80.5112 188.099 80.8004 188.544 80.8389C189.066 80.8775 189.588 80.8389 190.246 80.8389C191.02 79.7595 191.929 78.7187 193.535 78.5837C193.844 78.815 194.192 79.0849 194.521 79.3355C194.985 79.1427 195.411 78.95 195.624 78.8536C196.823 78.815 197.423 79.7402 198.274 79.8559C199.202 79.3355 200.053 78.8536 200.905 78.3717L201.001 78.4874L200.885 78.391C201.117 78.3524 201.388 78.2175 201.601 78.2561C201.968 78.3139 202.317 78.4874 202.742 78.6416C203.013 78.1019 203.245 77.6585 203.535 77.1189H205.818C206.205 76.6755 206.534 76.29 206.843 75.9624C206.979 75.9238 207.037 75.9045 207.114 75.9045C208.584 76.0973 210.015 76.1744 211.157 74.9793C211.234 74.883 211.389 74.8444 211.505 74.8251C212.82 74.4589 213.846 73.6494 214.503 72.9555C215.683 72.3772 216.554 71.9725 217.579 71.4713C218.179 71.6255 218.952 71.8183 219.552 71.9725C220.848 71.799 221.989 71.6255 223.111 71.4713C223.169 71.0473 223.208 70.7196 223.247 70.3534C223.904 70.3534 224.543 70.3341 225.181 70.3534C225.839 70.3726 226.496 70.5461 227.135 70.469C227.773 70.4112 228.373 70.1413 229.069 69.9293C229.688 70.4497 230.326 71.0087 230.965 71.5677C231.39 71.9339 231.855 72.1074 232.416 71.9532C232.648 71.7219 232.86 71.4906 232.919 71.4328H236.961C237.155 71.5484 237.445 71.6833 237.696 71.8954C238.296 72.3965 238.992 72.5314 239.728 72.4736C240.114 72.4543 240.54 72.4543 240.908 72.3194C241.681 72.0303 242.455 72.1074 243.151 72.3194C243.519 72.0881 243.79 71.9146 244.196 71.6641C245.066 72.1459 246.014 72.011 246.981 71.7026C247.291 71.6062 247.639 71.6641 247.968 71.6448C248.819 71.587 249.651 71.5099 250.831 71.4135C251.605 71.6255 252.688 71.7412 253.771 71.5677C253.965 71.2207 254.1 70.9509 254.274 70.6425C254.854 70.8352 255.415 71.0087 255.957 71.1822C256.344 71.0087 256.692 70.8352 257.04 70.681C257.35 70.7967 257.659 70.8931 257.872 70.9702C258.51 70.816 259.091 70.5654 259.652 70.5461C260.793 70.5461 261.857 70.2184 262.921 69.7944C263.927 70.2377 264.836 69.91 265.609 69.4667C267.389 69.7366 269.014 69.7173 270.658 69.4667C272.283 69.1969 273.927 69.1198 275.552 68.9656C275.746 68.9656 275.958 68.9656 276.133 69.0427C276.926 69.274 277.699 69.1583 278.473 68.9848C279.498 68.7535 280.524 68.5415 281.549 68.3295C282.071 68.2331 282.593 68.0789 283.096 68.1175C285.534 68.2717 287.932 67.6163 290.35 67.8669C291.859 67.52 293.348 67.944 294.857 67.9633C295.631 67.9633 296.482 68.0404 297.159 68.368C297.972 68.7728 298.765 68.9656 299.616 68.8499C300.448 68.7343 301.299 68.8885 302.111 68.4066C302.575 68.1367 303.253 68.156 303.833 68.156C304.452 68.156 305.148 68.0018 305.709 68.4066C305.67 68.7728 305.632 69.0812 305.574 69.4667C306.754 69.7944 307.856 70.2184 308.959 69.7558C310.042 70.0064 310.99 70.4305 311.957 70.4305C313.389 70.4305 314.685 70.7196 315.961 71.2786C316.077 71.3364 316.213 71.3171 316.387 71.3364C316.503 71.2207 316.619 71.0665 316.774 70.9509C316.909 70.816 317.064 70.7003 317.257 70.5654C317.509 70.6039 317.76 70.6232 318.012 70.681C318.128 70.7196 318.205 70.8352 318.341 70.9316C318.379 71.1629 318.437 71.4135 318.515 71.7797C320.372 71.4906 322.151 71.6448 323.505 72.6856C324.608 72.6856 325.479 72.5507 326.291 72.7242C327.181 72.9169 328.09 73.0133 328.98 73.2253C329.289 73.3024 329.695 73.2639 329.928 73.4373C330.914 74.1891 332.055 74.0349 333.158 73.977C334.067 73.9385 334.938 73.7072 335.673 73.3024C335.789 72.8591 335.305 72.5893 335.653 72.2423C336.93 72.223 338.168 72.4543 339.425 72.8784C340.702 73.3217 342.017 73.7457 343.255 74.3047C343.604 74.0349 343.913 73.7843 344.261 73.5145C344.571 73.7072 344.9 73.9192 345.267 74.1505H346.37C346.699 74.5167 347.008 74.8637 347.221 75.095C347.956 75.1335 348.536 75.1528 349.117 75.2299C349.639 75.307 350.142 75.5769 350.645 75.5383C351.128 75.519 351.593 75.2106 352.018 75.0564C352.328 75.1914 352.56 75.2877 352.695 75.3456C353.392 74.9022 353.972 74.5167 354.707 74.0541C354.978 74.4204 355.191 74.7288 355.326 74.9022C356.196 74.9793 356.912 75.0372 357.667 75.095C358.498 74.8251 359.408 74.5938 360.259 74.2662C361.11 73.9385 361.903 73.5145 362.754 73.129C363.083 73.4181 363.354 73.6686 363.605 73.8999C363.76 73.7843 363.895 73.6687 364.011 73.5916C364.495 73.9963 364.959 74.3433 365.404 74.7288C365.888 74.4782 366.275 74.2662 366.623 74.0734C367.609 74.0734 368.286 74.536 368.712 75.1721C369.66 74.9215 370.472 74.6902 371.188 74.4975C371.439 74.6324 371.555 74.6902 371.671 74.748C371.788 74.8059 371.904 74.8444 372.02 74.9022C372.426 74.7288 372.832 74.5746 373.258 74.4011C373.722 74.7866 374.128 75.1143 374.592 75.4998C375.308 75.5769 376.101 75.8082 376.856 75.6925C377.978 75.5383 379.08 75.5961 380.202 75.5961C380.782 75.5961 381.343 75.519 382.369 75.4612C382.949 75.519 383.935 75.866 385.038 75.7118C386.102 75.5576 387.243 75.9238 388.307 75.4034C388.404 75.1721 388.481 74.9408 388.578 74.7288C389.12 75.1143 389.622 75.5383 390.164 75.8467C390.725 76.1551 391.363 76.3671 391.963 76.637C392.679 76.4635 393.22 75.8853 394.014 75.9431C394.787 76.0202 395.58 75.9431 396.412 75.9431C397.244 77.3116 398.714 77.4465 400.165 77.6585C401.229 77.2923 402.293 77.9091 403.395 77.6585C403.589 77.4658 403.337 76.9839 403.937 76.9068C405.581 78.391 407.574 78.6223 409.721 78.044C411.442 78.4488 413.28 78.4488 414.595 79.721H415.659C415.814 80.0294 415.969 80.2992 416.085 80.5498C416.897 80.8004 417.632 81.1087 418.406 81.2437C419.16 81.3786 419.954 81.3593 420.573 81.3979C421.327 81.0509 421.482 80.2221 422.372 80.1836C422.584 80.7811 422.778 81.3401 422.991 81.9183C423.9 81.5906 424.693 81.263 425.544 81.6099C425.892 81.9183 426.24 82.2074 426.569 82.4773C427.033 82.4387 427.42 82.4002 427.691 82.3809C428.562 82.8049 429.297 83.2675 430.09 83.5567C430.96 83.8651 431.231 84.8288 431.734 85.0601C432.933 85.2721 433.823 85.4263 434.868 85.5998C435.603 85.3685 436.473 85.0794 437.344 84.7903C437.73 84.9059 438.098 85.0216 438.562 85.1758C438.814 84.8095 439.065 84.4433 439.317 84.0771C439.704 84.4048 439.936 84.6168 440.207 84.8481C440.748 84.2698 441.212 83.7494 441.638 83.2868C442.682 83.2483 443.514 83.9229 444.288 83.7109C445.042 83.4796 445.139 82.67 445.836 82.6315C446.222 82.882 445.99 83.6145 446.629 83.6338C447.325 83.4603 446.783 82.6122 447.46 82.3038C448.002 82.1496 448.486 82.4387 448.892 82.9206C449.279 83.3639 449.53 83.9422 450.517 84.0771C451.89 83.3832 453.283 84.1927 454.656 84.8866C455.411 84.771 456.107 84.559 456.842 84.771C457.326 84.9059 457.887 84.7903 458.409 84.7324C459.183 84.6553 459.937 84.5204 460.711 84.4048C460.711 84.1349 460.75 83.8458 460.769 83.4988C461.407 83.441 461.988 83.3832 462.645 83.3254C463.419 82.8628 464.232 82.3616 465.141 81.8219C465.431 82.0532 465.76 82.3616 466.108 82.6315C466.263 82.7471 466.456 82.7857 466.669 82.882C467.075 82.6893 467.501 82.4965 467.868 82.3423C468.371 82.3809 468.835 82.4194 469.261 82.4387C469.609 81.9568 469.919 81.5521 470.305 81.0317C471.795 81.4172 473.304 81.3208 474.871 80.9353C475.625 80.5112 476.418 79.933 477.405 79.7017C477.521 80.0486 477.637 80.3378 477.753 80.6654C478.991 81.2244 479.881 80.6076 480.654 79.9137C481.525 79.7788 482.299 79.6631 483.072 79.5282C484.504 79.2584 485.877 78.8343 487.231 78.2946C487.541 78.0055 487.908 77.8898 488.315 77.9477C488.895 78.0248 489.475 78.1211 489.978 78.1982C490.423 77.9862 490.771 77.8127 491.177 77.62C492.319 77.9477 493.479 78.0248 494.601 77.6778C495.568 77.3887 495.414 76.3864 495.801 75.8274C497.097 75.1335 498.335 76.2129 499.592 75.7889C499.418 75.4419 499.282 75.1721 499.147 74.9022C500.037 74.536 500.656 75.3456 501.468 75.3263C501.797 75.1721 502.145 74.9986 502.455 74.8251C504.35 75.3648 505.956 74.3047 507.658 74.1505C508.065 73.7072 508.413 73.3024 508.684 72.994C509.922 72.4351 511.082 72.011 512.339 71.8183C513.442 71.6448 514.487 71.2593 515.454 71.0087C515.821 70.5268 516.092 70.1799 516.305 69.8715C517.059 69.8522 517.736 69.9486 518.336 69.7751C518.936 69.6016 519.458 69.1391 520.038 68.7728C520.445 68.8499 520.831 68.8692 521.199 68.9848C522.224 69.3125 523.172 69.1776 524.004 68.5415C525.145 67.6549 526.364 67.4236 527.486 67.8284C529.362 67.7127 530.155 66.0936 531.645 65.5925C531.703 65.9394 531.761 66.3056 531.819 66.7104C532.206 66.7104 532.534 66.7682 532.825 66.7104C533.134 66.6333 533.444 66.3056 533.714 66.3635C534.662 66.5177 535.533 66.0743 536.442 66.0358C536.945 66.0358 537.506 65.8623 537.931 65.5925C538.995 64.8986 540.175 64.5324 541.452 64.2625C541.8 63.7999 542.129 63.3373 542.516 62.8554C542.767 63.0675 542.999 63.318 543.27 63.4722C543.657 63.6843 544.025 63.6457 544.295 63.2217C544.276 62.9325 544.237 62.6434 544.218 62.335C545.224 62.4699 545.166 63.5686 545.92 64.0119C547.274 63.7421 548.686 63.4722 550.099 63.2024C550.447 62.894 550.776 62.5856 551.162 62.2579H552.807C552.671 61.7568 552.575 61.3327 552.478 60.9472C553.368 60.1569 554.47 61.0436 555.36 60.4846C555.476 60.4075 555.728 60.5424 555.902 60.581C556.695 60.8123 557.546 60.7159 558.165 60.2919C558.784 59.8486 559.461 60.1762 560.293 59.7136C560.447 59.5209 560.796 59.1354 561.105 58.7692C562.014 58.4222 563.001 58.5186 563.736 57.8054V56.4369C564.123 56.2441 564.452 56.0899 564.8 55.9165C565.67 56.3405 566.541 56.5911 567.431 56.302C567.624 56.8031 567.779 57.2079 567.934 57.6127C568.533 57.4585 569.017 57.3621 569.5 57.2079C569.984 57.073 570.468 56.8995 571.009 56.726C571.222 56.9188 571.454 57.1308 571.648 57.3428C571.841 57.1693 571.996 56.8802 572.228 56.8224C573.601 56.4176 574.917 55.7237 576.425 55.8201C577.16 55.8587 577.954 55.7816 578.418 55.184C579.076 54.3745 580.023 54.0854 580.72 53.5457C582.054 53.5842 583.292 53.6228 584.511 53.6613C585.169 53.0638 585.73 53.8348 586.349 53.777C587.877 53.642 588.844 52.3892 590.16 51.9266C590.256 51.5411 590.353 51.2327 590.43 50.8857C591.552 50.7701 592.829 51.0014 593.448 49.6329C593.332 49.1895 593.216 48.7655 593.119 48.3993C593.699 47.8403 593.99 48.5535 594.57 48.5342C596.214 47.9174 598.148 47.6668 599.522 46.626C600.334 46.3947 600.992 46.9922 601.65 46.4139C601.456 46.0285 601.282 45.7008 601.089 45.3538C600.973 45.1225 600.837 44.8912 601.05 44.6792C601.65 44.6792 602.23 44.6792 602.83 44.6792C602.946 44.6792 603.062 44.7949 603.178 44.8334C603.449 45.2767 603.7 45.7201 603.932 46.0863C604.725 46.491 605.422 46.4139 606.215 46.1441C606.447 45.8164 606.698 45.4502 607.008 45.0069C608.246 44.6985 609.02 43.7347 609.658 42.6168C610.084 42.7903 610.451 42.9252 610.857 43.0794C611.283 42.8095 611.709 42.5397 612.25 42.1927C613.237 42.559 614.03 41.8843 614.726 41.4603C615.674 41.3832 616.448 41.3061 617.241 41.2483C617.841 41.1905 618.343 40.9206 618.846 40.5737C620.2 39.6677 620.742 38.2799 621.226 36.8343C621.361 36.4103 621.477 35.9477 621.651 35.5429C621.748 35.2923 621.961 35.1381 622.27 35.3309C622.657 35.8513 621.922 36.4488 622.406 37.1042C622.696 36.6609 622.909 36.2754 623.179 35.9284C623.295 35.7935 623.508 35.7549 623.682 35.6586C623.992 35.9284 624.263 36.1982 624.533 36.4296C626.448 36.2561 627.512 35.1574 628.112 33.5576C627.938 33.0564 627.783 32.6324 627.628 32.1891L627.609 32.2084C628.054 32.4782 628.499 32.7288 628.886 32.9793C630.085 32.5938 630.433 31.4952 631.207 30.7627C631.961 30.4543 633.083 30.6278 633.315 29.587C633.412 28.8738 632.561 28.5076 632.929 27.8715C633.702 27.6787 633.683 28.7967 634.399 28.6425C634.728 28.0835 635.037 27.5438 635.347 27.0234C635.173 26.5801 635.037 26.2139 634.94 25.9247C635.521 25.2116 636.062 24.5755 636.681 23.8045C637.745 23.6696 638.964 23.5154 640.125 23.3612C640.499 22.693 640.415 22.089 639.873 21.5493C640.067 21.1831 640.279 20.8747 640.782 21.0675C641.208 21.453 640.918 22.3011 641.595 22.4553C642.717 22.4938 642.465 21.3759 643.065 20.894C643.258 20.894 643.51 20.894 643.761 20.9325C644.09 20.9711 644.399 21.0289 644.67 21.0867C645.444 20.7012 646.102 20.2001 646.856 20.0073C647.92 19.7375 648.578 19.1207 649.042 18.1955C649.197 17.9064 649.41 17.6558 649.642 17.3281C650.435 17.1161 651.383 17.0776 652.06 16.6535C653.201 15.9018 654.381 15.8825 655.658 15.9596C655.851 15.9596 656.044 15.9018 656.257 15.8632C656.741 15.5548 657.224 15.2272 657.631 14.9573C660.087 14.6104 660.319 14.4754 661.48 12.4901C661.499 11.5649 660.919 10.6012 661.557 9.56035C662.312 9.34832 663.028 8.92428 663.511 8.15328C663.608 7.99908 663.84 7.94126 664.053 7.80633C664.594 7.82561 665.175 7.86416 665.658 7.88343C666.613 7.39513 667.328 6.79119 667.806 6.07159C668.115 6.01377 668.424 5.95594 668.811 5.89812C669.817 4.66453 671.326 3.9128 672.409 2.65994C672.932 2.04314 673.589 1.32997 674.479 1.23359C675.678 1.07939 676.762 0.693896 677.787 0C678.271 0.289123 678.715 0.558972 679.083 0.770996C679.605 0.809546 680.05 0.848095 680.456 0.86737C680.746 1.23359 680.959 1.52272 681.191 1.83112C681.365 1.65764 681.482 1.50344 681.617 1.36852C682.333 1.31069 683.029 1.23359 683.745 1.17577C683.803 1.17577 683.88 1.17577 683.938 1.21432C683.996 1.21432 684.054 1.25287 684.209 1.32997C684.383 1.65764 684.596 2.06241 684.828 2.50574C685.37 2.77559 685.95 3.06471 686.492 3.35383C686.743 3.23818 686.937 3.18036 687.111 3.10326C687.285 3.02616 687.478 2.96833 687.652 2.89123C688.116 3.16108 688.561 3.43093 689.006 3.6815C689.103 3.73933 689.258 3.6815 689.471 3.6815C689.606 3.52731 689.78 3.35383 689.857 3.27673C690.148 2.58284 689.548 2.02386 689.993 1.32997C690.206 1.61909 690.399 1.81184 690.496 2.02386C690.67 2.44791 690.747 2.91051 690.921 3.33456C691.366 4.41395 692.005 5.28132 693.301 5.43552C693.823 5.49334 694.345 5.60899 694.945 5.70537C696.163 4.79945 697.227 5.58972 698.349 6.07159C699.297 6.30289 700.245 6.51491 701.522 6.82331C703.727 6.74621 705.855 6.63056 706.861 7.67141C706.474 7.97981 706.106 8.26893 705.642 8.63515C706.474 9.15557 706.957 8.34603 707.673 8.38458C708.021 8.63515 708.447 8.92428 708.853 9.19413C709.259 9.09775 709.627 9.00138 710.052 8.905C710.807 10.5434 712.548 10.5048 713.708 11.3144C714.308 11.1987 714.811 11.1216 715.178 11.0445C716.803 11.6228 718.273 12.1625 719.473 12.6058C720.575 12.6636 721.426 12.7214 722.239 12.7793C722.568 13.3961 723.013 13.743 723.632 13.8587C724.386 14.0128 725.16 14.167 726.03 14.3598C726.398 14.2056 726.881 13.9936 727.326 13.8008C727.791 14.167 728.177 14.4947 728.584 14.8031C728.971 14.6875 729.28 14.5525 729.609 14.5333C730.77 14.4369 731.775 14.0514 732.568 13.1648C732.627 13.1069 732.82 13.1648 732.936 13.1648C733.149 13.5503 733.362 13.9357 733.516 14.2249C734.619 14.4754 735.18 13.5503 735.992 13.4539C737.443 14.2056 738.855 13.4539 740.267 13.4153C741.602 14.302 743.111 14.7067 744.62 15.1115C745.432 14.938 746.206 14.7453 746.98 14.5911C747.308 14.5333 747.637 14.4754 747.869 14.7838C747.869 15.5548 748.011 16.1845 748.295 16.6728C749.398 16.4608 750.539 16.2295 751.738 15.9789C751.99 16.1909 752.28 16.4222 752.589 16.6921C753.634 16.8463 754.678 16.8848 755.626 16.7306C756.419 16.3066 756.555 15.3428 757.464 15.0537C757.638 15.4006 757.812 15.7476 758.025 16.1524C757.638 16.4993 757.309 16.7884 756.98 17.0968C756.768 17.2896 756.651 17.5016 756.903 17.8293C757.754 17.9835 758.644 18.157 759.166 18.2533C760.462 18.157 761.371 18.022 762.281 18.0413C763.383 18.0413 764.486 18.4846 765.588 18.0991C765.704 18.0606 765.859 18.0991 765.975 18.1377C766.923 18.5425 767.91 18.369 768.935 18.1955C769.515 19.2556 770.56 19.4869 771.662 19.7375C772.281 20.7012 773.268 21.1831 774.332 21.453C774.893 21.2602 775.376 21.106 775.937 20.9133C776.344 21.4337 776.556 22.1469 777.407 22.1854C777.814 22.0505 778.297 21.8963 778.742 21.7614C779.032 22.089 779.245 22.3203 779.342 22.436C780.154 22.4938 780.851 22.3782 781.431 22.5902C783.075 23.2262 784.7 23.9587 786.48 24.1707C787.157 24.6719 787.93 24.7104 788.511 24.614C789.13 25.1923 789.594 25.6356 790.116 26.1175C791.296 26.3873 792.437 26.6572 793.617 26.927C794.585 27.5952 795.668 27.7302 796.867 27.3318C797.66 27.698 798.492 28.0642 799.285 28.4305C799.653 28.3148 799.962 28.2184 800.04 28.1992C800.891 28.3534 801.529 28.4883 802.167 28.5847C802.806 28.7003 803.483 28.7196 804.102 28.8931C805.262 29.24 806.423 29.1629 807.603 29.1629C808.048 29.1629 808.512 29.1629 808.957 29.2015C809.537 29.2786 810.118 29.4328 810.756 29.5677C811.356 30.0881 812.013 30.6278 812.787 31.2832H815.844C816.385 30.7435 816.907 30.1074 817.817 30.2038C817.526 30.7049 817.236 31.1868 816.888 31.765C818.049 32.5167 819.209 32.6902 820.234 32.2854C821.705 32.5553 822.923 32.7866 824.142 32.9986C824.819 33.1143 825.38 33.3648 825.825 33.9238C826.521 34.8105 827.43 35.0032 828.475 34.6755C828.591 34.637 828.726 34.6755 828.862 34.6948C830.003 35.3694 830.022 35.3887 830.661 35.3309C832.208 35.196 833.756 35.0996 835.303 35.3694C835.477 35.408 835.671 35.2538 835.826 35.196C837.721 36.0248 837.083 35.9862 840.313 35.5236C840.758 35.0418 841.223 34.5213 841.706 34.0009C842.635 34.3286 842.925 35.2538 843.621 35.7357C844.337 36.2175 845.053 36.6609 845.788 37.1234C846.349 37.0849 846.948 37.0271 847.374 37.0078C847.954 36.6801 848.399 36.4296 848.747 36.2368C849.598 36.603 850.314 37.0849 851.049 37.1813C852.171 37.3162 853.235 37.586 854.28 38.0101C854.899 37.7017 855.479 37.4126 856.079 37.1234C856.756 37.4704 857.375 37.7788 857.955 38.0679C859.851 37.7595 861.65 37.5089 863.449 37.6824C863.681 37.933 863.893 38.1643 864.068 38.357C865.75 38.6654 867.298 38.3185 868.768 38.0101C869.426 38.3378 870.006 38.6269 870.528 38.8775C871.07 38.6654 871.476 38.492 871.824 38.357C872.753 38.492 873.604 38.6269 874.571 38.7811C874.939 38.5305 875.364 38.2414 875.771 37.933C876.041 37.7402 876.273 37.4511 876.564 37.3933C877.337 37.2584 877.86 36.7765 878.382 36.2754C879.078 35.62 879.871 35.2152 880.877 35.4273C881.767 35.6007 882.541 35.2152 883.334 34.9068C883.643 35.0032 883.953 35.1189 884.34 35.2538C885.114 34.6948 885.887 34.1166 886.835 33.4227C887.299 33.3263 887.938 33.1914 888.595 33.0564C888.75 32.8444 888.905 32.6517 889.04 32.4204C889.195 32.2083 889.311 31.9771 889.35 31.9192C890.298 31.8614 890.781 32.0927 891.052 32.7288C890.994 33.1528 890.955 33.5576 890.917 33.9045C891.768 33.7696 892.542 33.654 893.238 33.5383C894.379 34.29 895.521 34.3286 896.701 33.9431C896.797 33.9045 896.855 33.7503 896.933 33.654C896.913 33.1914 895.985 33.0564 896.507 32.2854C897.087 32.6517 897.61 32.9986 898.151 33.3263C899.041 33.095 899.854 32.883 900.666 32.6902C901.324 32.883 901.943 33.0757 902.465 33.2492C902.813 33.1143 903.065 33.0179 903.355 32.9022C904.361 33.4419 905.405 34.0009 906.488 34.5984C906.759 34.5021 907.127 34.3864 907.456 34.2515C907.862 34.425 908.229 34.5599 908.268 34.5792C908.984 34.7334 909.235 34.1358 909.68 34.4828C909.758 34.7334 909.835 34.9647 909.912 35.2152C910.396 35.4658 910.86 35.7164 911.228 35.9091C912.118 35.9477 912.891 35.9862 913.626 36.0248C913.878 36.4103 914.091 36.7379 914.323 37.0849H916.006C916.412 37.3547 916.895 37.6824 917.379 38.0101C917.863 37.9715 918.327 37.933 918.752 37.8944C920.145 39.0509 921.654 38.9353 923.182 38.4341C923.414 38.6269 923.608 38.7811 923.82 38.9353C924.111 38.704 924.401 38.4727 924.71 38.2414C925.117 38.5883 925.465 38.8967 925.832 39.2244C926.799 39.263 927.786 39.3208 928.734 39.3593C929.72 39.9569 930.668 40.5351 931.751 41.1905C932.931 40.3424 934.285 40.3809 935.62 40.805C935.988 40.5351 936.317 40.3038 936.626 40.0725C937.593 40.5737 938.522 40.3231 939.354 39.8605C939.586 40.0532 939.721 40.1882 939.876 40.3038C940.882 41.0941 941.578 41.0555 942.41 40.1303C942.661 39.8412 942.874 39.5328 943.242 39.0509V40.5544C943.532 40.67 943.764 40.7471 944.035 40.8628C944.538 40.5351 945.041 40.2267 945.486 39.9376C946.066 39.8798 946.588 39.8219 946.994 39.7834C948.368 40.1496 949.316 40.9592 950.263 41.8265C950.979 41.9036 951.714 42.0964 952.411 42.0385C953.03 42 953.649 41.6723 954.21 41.4989C955.254 42.0771 956.434 41.8265 957.479 42.2313C957.924 42.4048 958.504 42.1927 959.007 42.1349C959.374 42.3084 959.723 42.5011 960.071 42.6553C960.129 42.6746 960.206 42.6553 960.264 42.6553C960.574 42.5011 960.864 42.3662 961.135 42.2313C962.508 42.424 963.882 42.0385 965.158 42.3469C965.468 42.0771 965.7 41.8651 965.893 41.6916C966.203 41.7494 966.435 41.8073 966.667 41.8651C967.093 41.576 967.46 41.3254 967.711 41.1519H970.439C970.729 41.4025 971.058 41.7109 971.387 42C971.909 41.9229 972.354 41.8458 972.799 41.788C973.244 41.7301 973.747 41.788 974.153 41.6145C974.521 41.4603 974.811 41.0941 975.12 40.8242C975.643 41.229 975.797 41.9614 976.668 41.9422C976.939 41.7301 977.287 41.4603 977.693 41.1326C978.022 41.2483 978.389 41.3639 978.854 41.5181C980.034 40.9592 981.194 41.5181 982.277 41.9036C982.684 41.7494 982.974 41.6145 983.303 41.4989C984.927 42.1735 986.552 42.8674 988.351 43.6191C989.725 43.6769 991.33 43.4071 992.607 44.1202C994 44.1973 994.948 43.6384 995.76 42.9637C996.224 43.1758 996.592 43.33 996.921 43.4649C997.443 43.2336 997.907 42.9252 998.41 42.8288C999.958 42.5397 1001.23 41.788 1002.34 40.7279C1002.82 40.8821 1003.25 41.0941 1003.69 41.1519C1004.21 41.2097 1004.74 41.1519 1005.26 41.1133C1005.88 41.0941 1006.44 41.2097 1006.92 41.5952C1007.23 41.8265 1007.54 42.0771 1007.6 42.1349C1009.42 42.559 1010.94 42.9059 1012.43 43.2529C1012.9 42.983 1013.29 42.7324 1013.71 42.5397C1014.18 42.3277 1014.21 41.6145 1014.81 41.5374C1015.36 42.5011 1014 42.8288 1014.18 43.7347C1014.35 43.8311 1014.56 44.0239 1014.79 44.0817C1016.26 44.4094 1017.73 44.737 1019.22 45.0069C1019.51 45.0647 1019.84 44.8334 1020.15 44.7756C1020.27 44.7563 1020.4 44.7756 1020.52 44.7949C1020.71 44.9683 1020.91 45.1418 1021.08 45.296C1023.56 45.8743 1025.88 45.2767 1028.18 44.5443C1028.41 44.8334 1028.63 45.084 1028.84 45.3346C1028.97 45.3346 1029.09 45.3731 1029.22 45.3731C1030.46 45.4309 1031.72 45.1804 1032.92 45.5851C1033.85 45.8935 1034.78 46.2405 1035.7 46.5681C1036.11 46.4332 1036.54 46.279 1036.81 46.1827C1037.41 46.5103 1037.85 46.7609 1038.32 47.0115C1039.23 46.6838 1039.94 47.4355 1040.83 47.5319C1041.35 47.4355 1041.93 47.3199 1042.44 47.2042C1043.33 47.3777 1043.98 47.7439 1044.58 48.3222C1045.05 48.7655 1045.63 49.151 1046.23 49.363C1046.94 49.6136 1047.72 49.6714 1048.47 49.8256C1048.96 49.4594 1049.44 49.1124 1049.92 48.7655L1049.9 48.7462C1049.73 49.4208 1049.56 50.1147 1049.38 50.8472C1050.33 51.5411 1051.51 51.4447 1052.48 51.676C1053.21 52.0229 1053.69 52.6397 1054.6 52.5819C1054.93 52.3892 1055.32 52.1771 1055.69 51.9844C1056.27 51.9844 1056.83 52.1193 1057.29 51.9458C1057.85 51.7531 1058.32 51.8687 1058.72 52.0229C1060.76 51.4254 1062.73 51.0206 1064.68 50.905C1066.35 51.3869 1067.91 51.7338 1069.56 51.1941C1069.73 51.464 1069.9 51.7145 1070.1 52.0229C1070.45 51.7338 1070.74 51.4832 1070.97 51.2905C1072.3 51.329 1073.27 51.9844 1074.24 52.6783C1074.64 52.5241 1075.01 52.3892 1075.42 52.235C1076.46 52.9867 1077.55 53.6613 1078.86 53.6806C1079.17 53.218 1078.98 52.9867 1078.71 52.7554C1078.51 52.5819 1078.32 52.4084 1078.11 52.235C1077.86 52.0229 1077.6 51.8109 1077.33 51.6374C1077.12 51.5025 1076.87 51.4061 1076.64 51.2712C1076.37 51.117 1075.96 51.1556 1075.9 50.7315C1076.71 50.6801 1077.86 51.162 1079.34 52.1771C1079.79 52.9481 1080.16 53.8348 1081.14 54.1239C1081.51 54.0083 1081.88 53.8733 1082.21 53.777C1082.38 53.8733 1082.52 53.9119 1082.59 54.0083C1083.45 54.8371 1084.35 54.8178 1085.26 54.1432C1085.61 53.8926 1085.94 53.8155 1086.35 53.7384C1087.08 53.5842 1087.45 53.1023 1087.35 52.3506C1086.93 51.9073 1086.52 51.5025 1086.13 51.0977C1086.25 50.8857 1086.29 50.7315 1086.39 50.6737C1086.56 50.5966 1086.77 50.5388 1086.95 50.5773C1088.05 50.7315 1088.84 51.4254 1089.62 52.1771C1089.67 52.4855 1089.73 52.7939 1089.79 53.1794C1090.25 53.4686 1090.74 53.7962 1090.97 53.9504C1091.96 54.1239 1092.65 54.2396 1093.48 54.3938C1093.85 54.2781 1094.36 54.1432 1094.86 53.989C1095.44 54.1817 1096 54.3938 1096.56 54.5672C1096.68 54.6058 1096.81 54.548 1097.12 54.5094C1097.3 54.2396 1097.55 53.8733 1097.8 53.4878C1098.34 53.7191 1098.71 53.8541 1099.06 54.0083C1099.4 54.1817 1099.73 54.3938 1099.95 54.5094H1101.45C1102.03 53.989 1102.69 53.6806 1103.45 53.6613C1104.22 53.642 1105.01 53.6613 1105.83 53.6613C1106.25 53.9504 1106.68 54.2396 1107.12 54.5672C1107.64 54.4516 1108.15 54.3167 1108.51 54.2396C1109.27 54.6058 1109.91 54.8949 1110.57 55.2033C1110.68 54.8949 1110.78 54.6636 1110.89 54.3552C1111.38 54.2781 1111.88 54.1817 1112.23 54.1239C1112.93 54.5865 1112.71 55.5502 1113.58 55.7237C1113.87 55.5117 1114.16 55.2997 1114.61 54.9913C1114.69 55.4731 1114.69 55.8394 1114.78 56.2056C1114.88 56.5718 1115.05 56.9188 1115.23 57.3235C1116.81 57.5741 1118.38 57.6705 1120.04 57.5934C1120.18 57.3621 1120.35 57.0922 1120.47 56.8802C1120.18 56.4754 1119.97 56.1863 1119.73 55.8586C1120.48 55.6145 1121.06 55.5824 1121.48 55.7623C1122.48 56.2056 1123.51 56.6682 1124.53 57.0922C1124.88 57.2272 1125.29 57.3043 1125.67 57.3235C1126.66 57.4006 1127.65 57.4585 1128.61 57.497C1129.25 57.5163 1129.89 57.497 1130.7 57.497C1131.05 57.7669 1131.55 58.1716 1132.11 58.5957C1133.14 58.3258 1134.13 58.056 1135.13 57.7861C1135.79 58.3066 1136.16 59.1739 1137.18 59.4438C1137.55 59.3474 1138.01 59.2318 1138.5 59.0968C1138.96 60.0606 1139.37 60.9472 1139.79 61.8339C1139.83 61.911 1140.03 61.9302 1140.26 62.0266C1140.59 61.6218 1140.92 61.1978 1141.21 60.8316C1141.94 60.8508 1142.35 61.1207 1142.5 61.6989C1142.66 62.2386 1142.97 62.6241 1143.53 62.7591C1143.89 62.6241 1144.24 62.5085 1144.59 62.3928C1144.94 62.682 1145.25 62.9325 1145.5 63.1638C1146 63.2216 1146.45 63.318 1146.91 63.3373C1147.36 63.3373 1147.8 63.2795 1148.27 63.2409C1148.52 62.7398 1148.73 62.3157 1148.96 61.8531C1149.12 62.1808 1149.21 62.4121 1149.33 62.6434H1151.25C1152.46 63.3759 1153.8 63.6264 1155.06 64.0697C1155.35 63.6264 1155.58 63.2795 1155.81 62.9325C1156.37 63.3566 1156.78 63.8384 1157.32 64.0697C1159.02 64.8215 1160.8 65.2262 1162.68 65.1491C1163.74 65.0913 1164.77 65.1491 1165.6 65.631C1167.51 65.1877 1169.29 64.7829 1171.17 64.3589C1171.46 64.1661 1171.83 63.8963 1172.18 63.665H1173.78C1174.23 63.2988 1174.61 62.9711 1174.98 62.682C1175.52 62.6434 1175.97 62.5856 1176.43 62.5856C1177.13 62.5856 1177.71 62.3736 1178.21 61.8917C1178.29 61.8146 1178.44 61.8531 1178.56 61.8339C1178.95 62.2386 1179 62.9711 1179.7 63.0867C1179.95 62.9904 1180.18 62.9133 1180.26 62.8747C1180.88 63.0867 1181.36 63.2602 1181.79 63.3951C1182.66 62.9711 1183.32 62.3157 1184.42 62.5085C1185.46 63.2217 1186.74 63.6457 1188.19 63.5686C1188.5 63.1253 1188.79 62.7205 1189.14 62.2386C1189.99 62.5663 1190.76 62.8554 1191.5 63.1253C1191.71 62.8747 1191.89 62.682 1192.12 62.4121C1192.97 63.2409 1193.92 63.6264 1194.9 63.5686C1195.68 62.9518 1196.39 62.3928 1196.97 61.9302H1198.13C1198.56 61.5833 1198.97 61.2556 1199.37 60.9279H1200.96V59.9064C1202 59.9835 1202.72 60.9858 1203.82 60.7352C1204.34 60.1184 1204.46 59.3474 1204.56 58.5571C1204.56 58.48 1204.69 58.4415 1204.77 58.3644C1204.96 58.7306 1205.14 59.0776 1205.29 59.386C1205.95 59.5787 1206.57 59.7522 1207.26 59.9449C1207.65 59.1932 1208.04 58.4608 1208.46 57.6512C1210.77 58.3066 1213.16 58.3451 1215.66 58.5186C1215.62 57.9596 1215.58 57.497 1215.56 57.0537L1215.54 57.073C1215.95 57.1308 1216.34 57.2272 1216.55 57.5934C1216.86 58.1331 1217.36 58.3644 1217.87 58.6921C1218.76 59.2703 1219.88 59.2703 1220.55 59.8486C1221.62 59.9257 1222.51 59.9835 1223.57 60.0413C1223.78 59.9449 1224.13 59.7907 1224.48 59.6365C1225.08 59.9449 1225.66 60.234 1226.26 60.5232C1226.65 60.2919 1226.98 60.0991 1227.32 59.9064C1227.4 59.0776 1227.48 58.3066 1227.56 57.5548C1227.79 58.1909 1227.81 58.827 1227.87 59.4438C1227.9 59.7522 1227.94 60.1184 1228.23 60.1955C1229.36 59.7136 1230.4 59.251 1231.37 58.8463C1231.87 59.1354 1232.28 59.3474 1232.7 59.5787C1232.9 59.386 1233.03 59.251 1233.19 59.0776C1233.53 59.1547 1233.96 59.2703 1234.42 59.3667C1234.68 59.0968 1234.91 58.8655 1235.12 58.6342C1235.27 58.7306 1235.41 58.827 1235.56 58.9234C1235.74 58.7306 1235.91 58.5571 1236.07 58.3837C1236.49 58.48 1236.86 58.5764 1237.19 58.6535C1237.5 58.268 1237.73 57.9789 1238.02 57.6127C1238.39 57.7476 1238.74 57.8825 1239.07 57.9982C1239.88 57.844 1240.65 57.6898 1241.19 57.5741C1242.18 56.938 1243.01 56.4176 1243.82 55.8972C1243.86 55.5888 1243.9 55.2804 1243.94 54.8949C1244.19 55.0298 1244.44 55.0684 1244.52 55.2033C1244.75 55.6466 1244.91 56.1285 1245.1 56.5911C1245.62 56.2827 1245.88 56.9188 1246.3 56.938C1246.44 56.6489 1246.59 56.3598 1246.73 56.0899C1247.46 55.955 1248.14 55.8201 1248.78 55.7044C1249.09 55.9743 1249.32 56.1863 1249.55 56.3791C1250.52 55.4153 1251.52 54.8178 1252.8 54.5865C1254.15 54.3552 1255.45 53.9312 1256.88 53.5649C1257.08 53.0831 1257.29 52.5626 1257.54 51.9458C1258.1 52.0615 1258.58 52.1579 1259.13 52.2542C1259.34 51.7145 1259.53 51.1941 1259.76 50.6159C1260.87 50.693 1261.33 51.8302 1262.26 51.9651C1262.41 52.3699 1262.53 52.659 1262.65 52.9867C1263.67 53.1023 1264.62 53.3529 1265.59 52.871C1266.07 52.9867 1266.59 53.0831 1267.04 53.1987C1267.66 52.9481 1268.2 52.7168 1268.74 52.5048C1269.32 51.9651 1269.9 51.4254 1270.58 50.7893C1270.81 50.7315 1271.2 50.6351 1271.53 50.558C1271.95 50.7122 1272.3 50.8472 1272.63 50.9628C1273.21 50.6737 1273.73 50.4231 1274.23 50.1918C1274.56 50.4424 1274.81 50.6352 1275.05 50.8279C1275.37 50.693 1275.66 50.5773 1275.97 50.4231C1276.24 50.2882 1276.3 49.8256 1276.75 49.9413C1277.12 50.4809 1276.98 51.464 1278.06 51.4061C1278.18 51.117 1278.31 50.8472 1278.45 50.5195C1279.13 50.5195 1279.55 50.8472 1279.69 51.5218L1279.59 51.5989L1279.67 51.5025C1279.98 51.4061 1280.29 51.3098 1280.6 51.2134C1280.87 50.9243 1281.12 50.6544 1281.35 50.4231C1282.49 50.7444 1283.32 51.162 1283.87 51.676C1283.02 52.235 1282.32 51.0785 1281.49 51.4447C1282.49 52.7168 1282.65 52.7939 1284.47 52.8903C1284.7 52.6397 1284.91 52.4084 1285.16 52.1386C1286.07 52.4277 1286.92 52.6976 1287.75 52.9674C1288.99 52.2542 1290.17 51.5603 1291.51 50.7893C1291.95 50.8086 1292.57 50.8472 1293.31 50.8857C1293.05 50.0955 1293.69 50.3268 1293.96 50.1147C1294.31 49.8449 1294.58 49.4979 1294.87 49.2281C1295.72 49.6907 1296.46 50.0955 1297.16 50.4617C1297.52 50.3075 1297.83 50.1918 1298.01 50.1147C1298.94 50.2882 1299.57 50.7508 1300.23 51.2134C1300.44 51.3676 1300.81 51.3483 1301.18 51.4254C1301.47 50.4039 1302.22 49.6907 1302.05 48.6306C1302.28 48.6691 1302.44 48.6498 1302.51 48.7269C1303.38 49.3823 1304.22 49.2859 1305.01 48.5727C1305.59 48.0523 1306.17 47.5126 1306.77 47.0115C1306.85 46.9344 1307.02 46.9536 1307.27 46.8765C1307.41 47.0886 1307.56 47.3199 1307.74 47.609C1307.25 48.1872 1306.77 48.6498 1306.44 49.1895C1306.07 49.7678 1305.43 50.1726 1305.2 50.8857C1306.03 51.2134 1306.75 51.4832 1307.45 51.7531C1308.38 51.6374 1309.07 51.1941 1309.61 50.558C1311.24 50.7508 1312.67 50.2304 1314.1 49.8256C1314.43 49.4787 1314.74 49.151 1315.05 48.8426C1316.83 48.7655 1318.49 49.5558 1320.35 48.939C1320.64 48.592 1321.03 48.168 1321.41 47.7054C1321.2 47.2428 1321.03 46.8187 1320.83 46.4139L1320.81 46.4332C1321.64 46.5103 1322.23 47.05 1322.53 47.3006C1323.73 47.6861 1324.58 47.9367 1325.47 48.2258C1326.11 47.9945 1326.83 47.6283 1327.56 47.5126C1328.32 47.3777 1329.09 47.4933 1329.96 47.4933C1330.08 47.1464 1330.19 46.7802 1330.31 46.4332L1330.29 46.4525C1330.64 46.7416 1330.99 47.0307 1331.34 47.3006C1331.88 47.0115 1332.4 46.7416 1332.88 46.4332C1333.37 46.1441 1333.85 45.8164 1334.3 45.5273C1334.7 45.6815 1335.2 45.6044 1335.17 45.9321C1334.97 46.626 1334.12 46.2405 1334.2 47.0693C1334.72 47.1657 1335.28 47.262 1335.8 47.3584C1336 47.1078 1336.11 46.9729 1336.23 46.8187C1336.48 46.6067 1336.71 46.3947 1336.98 46.2019C1337.06 46.1441 1337.2 46.1441 1337.33 46.1055C1337.53 46.4332 1337.7 46.8187 1338.32 46.626C1338.4 46.4718 1338.51 46.2405 1338.63 46.0285C1338.82 45.8743 1339.02 45.7201 1339.21 45.5466C1339.63 46.3176 1340.02 46.9922 1340.43 47.6861C1340.68 47.7632 1340.95 47.8017 1341.16 47.9174C1341.38 48.0523 1341.51 48.2643 1341.74 48.5149C1342.15 48.168 1342.52 47.821 1342.96 47.4355C1343.68 48.0909 1344.34 48.7269 1345.01 49.3245C1345.24 49.5172 1345.53 49.6329 1345.88 49.8256C1346.15 49.4016 1346.35 49.0739 1346.56 48.7462H1346.54C1347.22 49.1703 1347.89 49.5365 1348.73 49.3245C1349.62 48.5727 1350.51 47.8403 1351.43 47.05C1351.69 47.0886 1352 47.1464 1352.29 47.2042C1352.54 46.9922 1352.79 46.8187 1353.1 46.5489C1353.58 47.4933 1354.39 47.4933 1355.19 47.5512C1356.23 47.609 1357.26 47.6668 1358.73 47.7439C1359.33 47.6668 1360.29 47.0307 1361.32 47.6475C1362.02 47.397 1362.67 47.1464 1363.37 46.8958C1363.78 47.3391 1364.12 47.7246 1364.45 48.0909C1364.94 48.3029 1365.42 48.4956 1365.9 48.7077L1366 48.9197ZM1303.48 51.1363C1303.56 51.5603 1303.85 51.6374 1304.2 51.5411C1304.25 51.5411 1304.33 51.2905 1304.29 51.2327C1304.06 50.9628 1303.79 50.8086 1303.48 51.1363ZM841.803 35.4851C841.803 35.4851 841.958 35.62 842.035 35.6778C842.074 35.6393 842.132 35.5429 842.132 35.5429C842.054 35.4658 841.977 35.408 841.9 35.3502C841.861 35.3887 841.822 35.4465 841.803 35.4851ZM1042.11 48.4764C1042.11 48.4764 1042.01 48.4764 1041.95 48.4764C1041.99 48.5535 1042.01 48.6306 1042.05 48.7077C1042.09 48.6884 1042.17 48.6498 1042.17 48.6306C1042.17 48.592 1042.13 48.5342 1042.11 48.4764Z" fill="#F96353"/>
</g>
<defs>
<clipPath id="clip0_51_43">
<rect width="1366" height="167" fill="white"/>
</clipPath>
</defs>
</svg>
