<svg width="800" height="800" viewBox="0 0 800 800" fill="none" xmlns="http://www.w3.org/2000/svg">
<rect x="115" y="111.121" width="460.512" height="113.15" transform="rotate(-6.25137 115 111.121)" fill="white"/>
<path d="M556.377 93.8083C555.245 90.1618 559.378 87.1532 562.5 89.3513L662.526 159.774C664.767 161.352 664.793 164.665 662.577 166.279L598.831 212.682C596.615 214.295 593.47 213.252 592.657 210.634L556.377 93.8083Z" fill="white"/>
<rect x="167" y="201" width="532" height="504" fill="white"/>
<path d="M174.101 166.231C196.496 184.425 204.897 183.036 246.948 180.231L643.397 156.426C651.802 156.426 644.81 148.038 642.01 146.644L576.165 99.0459C563.551 89.2517 546.741 78.0347 514.529 80.8405L130.649 108.839C116.65 110.228 113.853 117.227 119.429 122.838L174.101 166.231ZM197.903 258.622V675.755C197.903 698.171 209.106 706.56 234.321 705.173L670.015 679.963C695.242 678.576 698.053 663.152 698.053 644.944V230.612C698.053 212.43 691.061 202.625 675.615 204.024L220.31 230.612C203.508 232.023 197.903 240.428 197.903 258.622ZM628.021 280.998C630.815 293.61 628.021 306.209 615.386 307.626L594.394 311.809V619.76C576.165 629.557 559.359 635.157 545.354 635.157C522.93 635.157 517.314 628.155 500.518 607.168L363.202 391.599V600.171L406.653 609.973C406.653 609.973 406.653 635.157 371.597 635.157L274.954 640.763C272.146 635.157 274.954 621.173 284.756 618.368L309.976 611.381V335.614L274.959 332.808C272.151 320.197 279.146 302.015 298.773 300.603L402.45 293.615L545.354 511.989V318.808L508.919 314.626C506.122 299.21 517.314 288.015 531.325 286.627L628.021 280.998ZM98.4176 71.0464L497.715 41.642C546.751 37.4364 559.365 40.2535 590.186 62.6411L717.642 152.226C738.677 167.631 745.685 171.826 745.685 188.619V679.963C745.685 710.752 734.469 728.965 695.247 731.749L231.547 759.755C202.107 761.157 188.095 756.96 172.677 737.349L78.8133 615.568C61.9941 593.152 55 576.379 55 556.757V120.022C55 94.84 66.2203 73.8352 98.4176 71.0464Z" fill="black"/>
</svg>
